<svg viewBox="0 0 600 210.64" xmlns="http://www.w3.org/2000/svg" width="159" height="101"><path d="M0 .01h19.7v58.1H0zm0 93.3h19.7v39.9H0zm77.9-26.7c14.6-4.2 26.6-13 26.6-28.5 0-32.3-44.3-37.3-59.7-38v133c18.3-.6 62.3-5.4 62.3-38.7-.1 0 1.2-20.6-29.2-27.8zm143.3 41.7h-54.6V1.51a1.87 1.87 0 00-2-1.5h-25.8c-1.2 0-2.1.8-2.1 1.5v130.1c0 .7 1 1.5 2.1 1.5h82.3c1.4 0 2.2-.8 2.2-1.5V110a1.87 1.87 0 00-2.1-1.69zM253 1.51v130.1c0 .7 1 1.5 2.1 1.5h91.4v-24.8h-63.6v-29.9h61.4c1.2 0 2.2-.8 2.2-1.5v-21.1c0-.8-1-1.5-2.2-1.5h-61.4v-30.2h63.6V0h-91.4c-1.1.11-2.1.91-2.1 1.51zm204.5 63a44.73 44.73 0 00-9.1-5 59 59 0 00-20.7-4.4c-1.2 0-6.3-.5-7.4-.6-7.2-1.1-13.9-5.8-14.9-13v-1.2c0-10.6 8.8-16.1 19.6-16.1 10.2 0 18.8 4.5 19.2 14.1 0 .5 1 1.3 2.1 1.3h24.4c1.4 0 2.3-.8 2.1-1.3-.4-22.7-21.2-38-47.9-38h-.2c-25 0-48.5 13.8-48.5 38.8v1.3c0 12.3 5.8 22.2 16.2 28.9a53.64 53.64 0 009.2 4.8 65.45 65.45 0 0023.1 4.5c1.2.1 3.5.3 4.7.5 7.2 1.3 13.8 5.7 14.8 12.9v1.2c0 10.6-8.8 16.1-19.6 16.1-10.2 0-18.8-4.5-19.2-14.1 0-.5-1-1.3-2.1-1.3h-24.4c-1.4 0-2.3.8-2.1 1.3.4 22.6 21.1 37.9 47.9 37.9h.2c25 0 48.5-13.8 48.5-38.8V93c0-12.09-5.5-21.79-15.9-28.49zm126.7 0a44.73 44.73 0 00-9.1-5 59 59 0 00-20.7-4.4c-1.2 0-6.3-.5-7.4-.6-7.2-1.1-13.9-5.8-14.9-13v-1.2c0-10.6 8.8-16.1 19.6-16.1 10.2 0 18.8 4.5 19.2 14.1 0 .5 1 1.3 2.1 1.3h24.5c1.4 0 2.3-.8 2.1-1.3-.4-22.7-21.2-38-48-38h-.2c-25 0-48.5 13.8-48.5 38.8v1.3c0 12.3 5.8 22.2 16.2 28.9a51.08 51.08 0 009.3 4.8 65.45 65.45 0 0023.1 4.5c1.2.1 3.5.3 4.7.5 7.2 1.3 13.8 5.7 14.8 12.9v1.2c0 10.6-8.8 16.1-19.6 16.1-10.2 0-18.8-4.5-19.2-14.1 0-.5-1-1.3-2.2-1.3h-24.4c-1.4 0-2.4.8-2.1 1.3.4 22.6 21.1 37.9 47.9 37.9h.1c25 0 48.5-13.8 48.5-38.8V93c.1-12.09-5.4-21.79-15.8-28.49zM17.6 193.31v1.5c0 .4 0 .6-.3.6s-.4-.5-.4-.7a4.4 4.4 0 00-.2-1 7.49 7.49 0 00-1.6-3.5 4.39 4.39 0 00-6-.8 4.74 4.74 0 00-1 1 13 13 0 00-1.9 5.4 23.08 23.08 0 00-.3 3.7c0 3.4.8 6.8 2.4 8.6a4.64 4.64 0 002 1.3 5.9 5.9 0 001.4.2 4.6 4.6 0 003.3-1.3 7.22 7.22 0 002.2-3.5 8.33 8.33 0 00.4-1.5c0-.2.1-.3.2-.5s.1-.1.2-.1.2 0 .2.4a8.75 8.75 0 01-.2 1.6 23.83 23.83 0 00-.2 3v2.1c0 .1 0 .4-.2.4s-.2-.2-.3-.3a2.76 2.76 0 00-1.5-1.5 6.63 6.63 0 01-5 2 10.94 10.94 0 01-10.6-11.3 11.79 11.79 0 012.7-7.6 10 10 0 018-3.7 7 7 0 013.5.9 2.39 2.39 0 001.4.5 1.43 1.43 0 001.2-.6c.3-.4.4-.4.5-.4s.2 0 .2.2a7.47 7.47 0 01-.1 1.1 17.63 17.63 0 000 2.3zm37.2-2.7a10.53 10.53 0 012.5 3.7 13.1 13.1 0 01-2 13 9.66 9.66 0 01-14.4 0 11.88 11.88 0 01-3-8 13 13 0 011.2-5.5 11.38 11.38 0 011.8-2.5 10.07 10.07 0 017.3-3.2 8.72 8.72 0 016.6 2.5zm-9.9.1a17.26 17.26 0 00-1.5 7.8c0 2 .2 7 2.3 10a6.47 6.47 0 00.8.9 3.61 3.61 0 002 .6 2.91 2.91 0 002.9-2 11.76 11.76 0 00.7-2 28.1 28.1 0 00.6-6.5 22.06 22.06 0 00-1.5-8.8 4.44 4.44 0 00-.8-1.1 3.1 3.1 0 00-2.2-.9 3.38 3.38 0 00-3.3 2zm39.5 18.7a40.12 40.12 0 006-.2 3.52 3.52 0 002.7-2 25 25 0 00.7-2.6.76.76 0 01.2-.4h.1a1.27 1.27 0 01.1.6c0 1.8-.1 1.5-.1 3.2v2.2c-1.6-.1-2.4-.1-4.1-.1H78.2a5.7 5.7 0 01-1.3-.1v-.2c0-.2 0-.3.4-.3a4.48 4.48 0 002-.4c.2-.2.3-.4.3-1.5v-17.1c0-.8 0-1.1-.2-1.3a2.09 2.09 0 00-.6-.4h-1.3c-.3 0-.4-.1-.4-.2s.3-.3.4-.3h8.7c.1 0 .5 0 .5.3s0 .3-.6.3-1.3-.1-1.6.3a3.18 3.18 0 00-.2 1.4zm35.3 0a40.12 40.12 0 006-.2 3.52 3.52 0 002.7-2 25 25 0 00.7-2.6.76.76 0 01.2-.4h.1a1.27 1.27 0 01.1.6c0 1.8-.1 1.5-.1 3.2v2.2c-1.6-.1-2.5-.1-4.1-.1h-11.7a5.7 5.7 0 01-1.3-.1s-.1 0-.1-.2 0-.3.4-.3a4.48 4.48 0 002-.4c.2-.2.3-.4.3-1.5v-17.1c0-.8 0-1.1-.2-1.3a2.09 2.09 0 00-.6-.4h-1.3c-.3 0-.4-.1-.4-.2s.3-.3.4-.3h8.7c.1 0 .5 0 .5.3s0 .3-.6.3-1.3-.1-1.6.3a3.18 3.18 0 00-.2 1.4zm35.6-11.2h1.6a4.62 4.62 0 003-.7 4 4 0 001-2.5c0-.4 0-1.1.4-1.2h.2c.1 0 .3 0 .3.7v2.2c-.1 4.1 0 5.3 0 6.2 0 .1 0 .4-.2.4s-.4-.6-.5-1.2a5.38 5.38 0 00-.8-2.8 4 4 0 00-2.6-.5h-2.1v10.5h4.2a7.06 7.06 0 003.8-.8 2.94 2.94 0 001-1.2 9.59 9.59 0 00.7-2.8c0-.1 0-.5.3-.5h.2a.9.9 0 01.1.5v5.7c-4.7 0-3.8-.2-12.7-.2h-4.9c-.2 0-.4 0-.4-.3s.1-.2.3-.2l1-.1a2.92 2.92 0 00.9-.2.86.86 0 00.6-.3 2.77 2.77 0 00.3-1.3V190a1.68 1.68 0 00-.3-1.2c-.3-.2-.4-.2-1.2-.2h-.9c-.1 0-.3 0-.3-.3s.2-.3.5-.3h16.4a28.23 28.23 0 00.3 3.4c0 .6.2 1.3.2 1.9 0 .1 0 .4-.2.4s-.4-.4-.5-.8a4.43 4.43 0 00-1.7-3.1 7.93 7.93 0 00-4.5-1.1c-.7 0-1.4 0-2.9.1zm47-4.9v1.5c0 .4 0 .6-.3.6s-.4-.5-.4-.7a4.4 4.4 0 00-.2-1 6.78 6.78 0 00-1.7-3.5 4.65 4.65 0 00-3.5-1.8 5 5 0 00-2.6.8 4.74 4.74 0 00-1 1 13 13 0 00-1.9 5.4 23.08 23.08 0 00-.3 3.7c0 3.4.8 6.8 2.4 8.6a4.64 4.64 0 002 1.3 5.9 5.9 0 001.4.2 4.6 4.6 0 003.3-1.3 10.77 10.77 0 001.8-2.4 5.64 5.64 0 00.4-1.2 8.33 8.33 0 00.4-1.5c0-.2.1-.3.2-.5s.1-.1.2-.1.3 0 .3.4a5.63 5.63 0 01-.2 1.6 23.83 23.83 0 00-.2 3v2.1c0 .1 0 .4-.2.4s-.2-.2-.3-.3a2.76 2.76 0 00-1.5-1.5 6.63 6.63 0 01-5 2 11 11 0 01-7.3-3.1 11.16 11.16 0 01-3.3-8.2 12.27 12.27 0 012.6-7.6 10 10 0 018-3.7 7 7 0 013.5.9 2.39 2.39 0 001.4.5 1.43 1.43 0 001.2-.6c.3-.4.4-.4.5-.4s.2 0 .2.2a7.47 7.47 0 01-.1 1.1 17.63 17.63 0 000 2.3zm30.9 13.5a5.34 5.34 0 00.2 2.2.52.52 0 00.4.2 2.77 2.77 0 00.9.1l1.2.1h.2c.1 0 .1 0 .1.2s-.1.3-.7.3-1.5-.1-4.7-.1h-5c-.4 0-.4-.1-.4-.2a.32.32 0 01.3-.3h.9a2.54 2.54 0 001.2-.2.9.9 0 00.6-.6V189h-.9a4.86 4.86 0 00-4.1 1.4 11.49 11.49 0 00-1.2 3.7c0 .3-.1.5-.4.5h-.2c-.1 0-.1-.2-.1-.3v-1.4c.2-3.2.3-3.7.3-4.7 9 0 .9.1 9.1.1h8.5a18.41 18.41 0 00.3 3.3l.2 2c0 .6 0 .8-.2.8s-.4-.5-.5-.7c-.6-2.1-.9-3.2-1.8-3.8a5.16 5.16 0 00-3.4-.9h-1.3zm27.4-15.5c0-1.5 0-2-.2-2.2s-.5-.2-1.4-.2h-.4c-.5 0-.5-.2-.5-.2s0-.3.7-.3h5c2.9 0 2.3-.1 3.4-.1.2 0 .5 0 .5.3s-.5.3-1.1.3a1.49 1.49 0 00-.9.2c-.2.1-.4.2-.4.8v17.8a2.62 2.62 0 00.2 1.5c.3.4.9.4 2.1.4.2 0 .3 0 .3.2s0 .2-.2.2h-.3c-.6 0-1.8-.1-3.7-.1h-5.5c-.2 0-.3 0-.4-.1v-.2c0-.1 0-.2.1-.2h1.2a1.35 1.35 0 001.2-.5 2.54 2.54 0 00.2-1.2zm43.2-.7a10.53 10.53 0 012.5 3.7 13.1 13.1 0 01-2 13 12.66 12.66 0 01-2.5 2.1 9.62 9.62 0 01-11.9-2 11.41 11.41 0 01-3-8 11.72 11.72 0 011.3-5.5 11.38 11.38 0 011.8-2.5 10.07 10.07 0 017.3-3.2 8.07 8.07 0 016.5 2.4zm-9.9.1a17.26 17.26 0 00-1.5 7.8c0 2 .2 7 2.3 10a6.47 6.47 0 00.8.9 3.61 3.61 0 002 .6 2.91 2.91 0 002.9-2 6.64 6.64 0 00.6-2 28.15 28.15 0 00.7-6.5 22.06 22.06 0 00-1.5-8.8 4.44 4.44 0 00-.8-1.1 3.1 3.1 0 00-2.2-.9 3.38 3.38 0 00-3.3 2zm35 3.1a9.82 9.82 0 00-.3-3.4 2.19 2.19 0 00-.9-1 4.88 4.88 0 00-.7-.3c-.4-.1-.7-.1-1.1-.2-1 0-1.3 0-1.3-.3s.1-.3.5-.3c1.1 0 .6.1 3.5.1h3.3l11.1 14.2v-12.5c0-1-.3-1.1-.9-1.2h-1.8c-.1 0-.4 0-.4-.2s1.6-.3 2.6-.3h3.7c.6 0 .5 0 .5.1v.3c0 .1-.1.1-.2.1h-1.8c-.3 0-.8 0-.9.3s-.1.4-.1 1.3v19.3c0 .2 0 .5-.2.5s-.5-.4-.6-.5l-13.3-16.6v15.3c0 .4 0 .6.4.8a5 5 0 002.1.2c.2 0 .5 0 .6.2v.1c0 .1-.1.2-.5.2h-6.4c-.5 0-.6-.2-.6-.2a2.19 2.19 0 01.8-.3 8.47 8.47 0 001.3-.1 1.75 1.75 0 001.2-.4c.2-.3.1-.9.1-1.3zm67.9 5v8a5.5 5.5 0 00.2 2.2 1.91 1.91 0 001 .5h.8c.3 0 .6 0 .6.3s-.2.2-.3.2H398l-2.6-.1h-2.1c-1.3 0-2.3.1-3.5.1-.1 0-.5 0-.5-.3s.3-.3.4-.3h.7c.2 0 1.3-.2 1.4-.4s.1-.6.1-1.6v-17.7a1.14 1.14 0 00-.3-.8 4.43 4.43 0 00-2-.3c-.1 0-.4 0-.4-.3s.4-.3.6-.3.6.1.8.1h4.9c.8 0 2.4-.1 3.1-.1.2 0 .6 0 .6.3v.2h-1.3a1.61 1.61 0 00-.9.3 1.74 1.74 0 00-.3 1.4v7.4h7.6v-7a3.92 3.92 0 00-.4-1.8 1.59 1.59 0 00-1.2-.4h-.7c-.2 0-.5 0-.5-.3v-.2c.1-.1.1-.1.3-.1h7.3c.9 0 1.7-.1 2.5-.1 0 0 .3 0 .3.2a.22.22 0 01-.2.2h-1.1a1.75 1.75 0 00-1.2.4c-.4.4-.4 1.4-.4 2.1v15.5c0 .9-.1 2 .5 2.5a2.1 2.1 0 001.1.4l.7.1a.76.76 0 01.5.2v.2c0 .2-.2.2-.3.2-.3 0-.6-.1-.9-.1h-.9c-1.2 0-2.5-.1-3.8-.1H402c-.2 0-.5 0-.5-.2s.3-.3.4-.3a5.44 5.44 0 001.8 0c.5-.3.5-.7.5-1.2v-9.2zm50.7-8.2a10.53 10.53 0 012.5 3.7 13.1 13.1 0 01-2 13 12.66 12.66 0 01-2.5 2.1 9.62 9.62 0 01-11.9-2 11.88 11.88 0 01-3-8 11.72 11.72 0 011.3-5.5 11.38 11.38 0 011.8-2.5 10.24 10.24 0 017.3-3.2 8 8 0 016.5 2.4zm-9.9.1a17.26 17.26 0 00-1.5 7.8c0 2 .2 7 2.3 10a6.47 6.47 0 00.8.9 3.61 3.61 0 002 .6 2.91 2.91 0 002.9-2 6.64 6.64 0 00.6-2 28.15 28.15 0 00.7-6.5 22.06 22.06 0 00-1.5-8.8 4.44 4.44 0 00-.8-1.1 3.1 3.1 0 00-2.2-.9 3.38 3.38 0 00-3.3 2zm43.6 16.1a5.34 5.34 0 00.2 2.2.76.76 0 00.4.2 2.49 2.49 0 00.8.1l1.2.1h.2c.1 0 .1 0 .1.2s-.1.3-.7.3-1.5-.1-4.7-.1h-5c-.4 0-.4-.1-.4-.2a.32.32 0 01.3-.3h.9a2.54 2.54 0 001.2-.2.9.9 0 00.6-.6V189h-.7a4.86 4.86 0 00-4.1 1.4 11.49 11.49 0 00-1.2 3.7c0 .3-.1.5-.4.5h-.2c-.1 0-.1-.2-.1-.3v-1.4c.3-3.2.3-3.7.4-4.7 9 0 .9.1 9.1.1h8.5c0 1.1.1 2.2.2 3.3l.2 2c0 .6 0 .8-.2.8s-.4-.5-.5-.7a7.73 7.73 0 00-1.7-3.8 5.16 5.16 0 00-3.4-.9h-1.3zm32.4-8.6h1.6a4.62 4.62 0 003-.7 4 4 0 001-2.5c0-.4 0-1.1.4-1.2.1 0 .3 0 .3.7v2.2c-.1 4.1 0 5.3 0 6.2 0 .1 0 .4-.2.4s-.4-.6-.5-1.2a5.38 5.38 0 00-.8-2.8 3.79 3.79 0 00-2.5-.5h-2.3v10.5h4.2a7.06 7.06 0 003.8-.8 2.94 2.94 0 001-1.2 9.59 9.59 0 00.7-2.8c0-.1 0-.5.3-.5h.2a.9.9 0 01.1.5v5.7c-4.7 0-3.8-.2-12.7-.2h-4.9c-.2 0-.3 0-.3-.3s.1-.2.2-.2l1-.1a2.92 2.92 0 00.9-.2.86.86 0 00.6-.3 2 2 0 00.2-1.3V190a1.68 1.68 0 00-.3-1.2c-.3-.3-.4-.2-1.2-.2h-.7c-.1 0-.3 0-.3-.3s.2-.3.5-.3h16.3a28.23 28.23 0 00.3 3.4 12.1 12.1 0 01-.1 1.9c0 .1 0 .4-.2.4s-.4-.4-.5-.8a4.43 4.43 0 00-1.7-3.1 7.74 7.74 0 00-4.5-1.1c-.7 0-1.4 0-2.9.1zm36.2 11.2a40.12 40.12 0 006-.2 3.31 3.31 0 002.7-2 11.07 11.07 0 00.7-2.6c0-.1.1-.3.1-.4h.1a1.27 1.27 0 01.1.6c0 1.8-.1 1.5-.1 3.2v2.2c-1.6-.1-2.5-.1-4.1-.1h-11.7a5.7 5.7 0 01-1.3-.1s-.1 0-.1-.2 0-.3.4-.3a4.48 4.48 0 002-.4c.2-.2.3-.4.3-1.5v-17.1c0-.8 0-1.1-.2-1.3a1.61 1.61 0 00-.7-.4h-1.3c-.3 0-.4-.1-.4-.2s.3-.3.4-.3h8.7c.1 0 .5 0 .5.3s0 .3-.6.3-1.3-.1-1.7.3a3.18 3.18 0 00-.2 1.4zm41.6-21.2v2.6a23.87 23.87 0 00.2 2.4.32.32 0 01-.3.3 1.52 1.52 0 01-.5-.9 5 5 0 00-.5-1.3 6.74 6.74 0 00-1.9-2.2 4.28 4.28 0 00-2.2-.6c-2 0-3.8.9-3.8 3.2a3 3 0 00.6 1.8 13.13 13.13 0 004.1 3 22.05 22.05 0 014.5 3 6.14 6.14 0 011.6 4.2c0 3.2-2.4 6.6-7.3 6.6a9.37 9.37 0 01-3.7-.7 7 7 0 00-1.9-.6.37.37 0 00-.3.1l-.3.3c-.3.6-.2.9-.4 1h-.1c-.1 0-.3-.1-.3-.4a23.08 23.08 0 00.3-3.7c0-.9-.1-1.1-.1-2.4 0-.1 0-.5.3-.5s.4.6.6 1.4a6.18 6.18 0 002 3.6 6.36 6.36 0 003.5 1.4 3.8 3.8 0 004-3.6V206a3.18 3.18 0 00-.8-2 12.52 12.52 0 00-3.7-2.2 12.89 12.89 0 01-4.7-3.7 7.11 7.11 0 01-1.1-4c0-3.8 3-6.3 7-6.3a7.22 7.22 0 013.2.8 2.35 2.35 0 00.8.2h.2a5.56 5.56 0 00.4-.8c.1-.3.1-.3.3-.3s.3.11.3.51z"/></svg>