<svg height="101" width="159" xmlns="http://www.w3.org/2000/svg"><g fill="none" fill-rule="evenodd"><path d="M0 0h159v101H0z"/><path d="M31.892 36.636l-5.02 15.093-4.911-15.019H19l6.536 18.855h2.455L33.047 40.8l5.02 14.766h2.42l6.571-18.855H44.17l-4.91 15.02-5.056-15.094zM49.046 55.42h2.781V36.71h-2.78zm-.18-22.801h3.177v-3.077h-3.178zm6.788 22.8h2.781V29h-2.78zm5.271-9.301v-.072c0-6.117 4.442-9.735 8.919-9.735 3.467 0 5.706 1.882 7.15 3.98V29h2.781v26.42h-2.78v-3.763c-1.517 2.243-3.72 4.161-7.151 4.161-4.477 0-8.919-3.547-8.919-9.7zm16.177-.036v-.072c0-4.308-3.284-7.203-6.752-7.203-3.612 0-6.573 2.678-6.573 7.203v.072c0 4.415 3.035 7.239 6.573 7.239 3.468 0 6.752-2.931 6.752-7.24zm7.043 10.424c2.13 1.556 4.514 2.387 7.186 2.387 4.117 0 6.79-2.279 6.79-6.658v-2.208c-1.626 2.172-3.9 3.945-7.332 3.945-4.478 0-8.775-3.365-8.775-8.76 0-5.537 4.334-8.901 8.775-8.901 3.503 0 5.778 1.737 7.294 3.763V36.71h2.782v15.454c0 2.896-.867 5.103-2.384 6.623-1.661 1.664-4.153 2.497-7.114 2.497-3.106 0-5.994-.868-8.486-2.607zm14.047-11.329v-.071c0-3.838-3.322-6.334-6.86-6.334-3.54 0-6.465 2.46-6.465 6.296v.074c0 3.763 2.997 6.37 6.464 6.37 3.539 0 6.861-2.571 6.861-6.335zm14.229 8.252c2.563 0 4.369-1.05 5.886-2.642l1.733 1.556c-1.878 2.1-4.152 3.511-7.692 3.511-5.127 0-9.316-3.945-9.316-9.772 0-5.43 3.792-9.772 8.955-9.772 5.524 0 8.703 4.416 8.703 9.917 0 .253 0 .542-.036.976h-14.807c.398 3.945 3.287 6.226 6.574 6.226zm5.453-8.469c-.325-3.401-2.275-6.298-5.96-6.298-3.213 0-5.669 2.68-6.067 6.298zm4.803-8.251h2.78v3.256c1.229-2.027 3.179-3.655 6.393-3.655 4.514 0 7.15 3.041 7.15 7.492V55.42h-2.78V44.49c0-3.475-1.879-5.647-5.166-5.647-3.213 0-5.597 2.353-5.597 5.864V55.42h-2.78zM21.302 65.953h2.345c1.385 0 2.261.792 2.261 1.993v.017c0 1.336-1.07 2.035-2.38 2.035h-1.18v1.916h-1.046zm2.26 3.1c.79 0 1.283-.443 1.283-1.064v-.018c0-.698-.5-1.065-1.282-1.065h-1.216v2.147zm4.931-3.142h.968l2.618 6.003h-1.104l-.604-1.439h-2.812l-.612 1.439h-1.071zm1.495 3.636l-1.028-2.384-1.02 2.384zm10.695-2.622h-1.886v-.972h4.827v.972h-1.887v4.99h-1.054zm4.048-.972h.969l3.186 4.122v-4.122h1.028v5.961h-.877l-3.278-4.24v4.24H44.73zm6.715 0h4.409v.938H52.49v1.55h2.982v.935H52.49v1.602h3.408v.936h-4.452zm5.696 0h2.65c.747 0 1.335.222 1.716.598.315.322.493.765.493 1.284v.017c0 .98-.586 1.567-1.418 1.805l1.605 2.257h-1.231l-1.462-2.079h-1.309v2.079h-1.044zm2.574 2.955c.747 0 1.223-.392 1.223-.997v-.016c0-.639-.459-.988-1.232-.988h-1.521v2.001zm3.173 2.137l.628-.749c.57.494 1.138.775 1.878.775.645 0 1.053-.3 1.053-.75v-.018c0-.424-.238-.654-1.342-.91-1.266-.307-1.98-.681-1.98-1.779v-.018c0-1.021.85-1.727 2.032-1.727.865 0 1.554.263 2.157.749l-.561.791c-.536-.4-1.071-.612-1.615-.612-.611 0-.968.315-.968.705v.018c0 .46.272.664 1.411.937 1.257.307 1.91.757 1.91 1.745v.017c0 1.116-.874 1.781-2.123 1.781a3.658 3.658 0 01-2.48-.955zm8.448.869h1.045v-5.961h-1.045zm2.635-5.96h.97l3.185 4.12v-4.12h1.028v5.96h-.875L75 67.674v4.24h-1.028zm9.266 0h1.044v5.006h3.128v.954h-4.172zm10.754 0h1.129l1.42 4.419 1.46-4.437h.885l1.46 4.437 1.42-4.42h1.096l-2.073 6.003h-.901l-1.462-4.282-1.46 4.282h-.901zm-3.385-.043h.968l2.618 6.003H93.09l-.604-1.439h-2.812l-.612 1.439h-1.07zm1.495 3.636l-1.028-2.384-1.02 2.384zm-59-3.593h2.65c.749 0 1.335.221 1.717.597.314.322.492.765.492 1.284v.017c0 .98-.586 1.567-1.418 1.805l1.606 2.257h-1.232l-1.462-2.079h-1.309v2.079h-1.044zm2.574 2.954c.747 0 1.224-.392 1.224-.997v-.016c0-.639-.46-.988-1.233-.988h-1.52v2.001z" fill="#323232"/></g></svg>