<svg height="100" width="159" xmlns="http://www.w3.org/2000/svg"><g fill="none" fill-rule="evenodd"><path d="M0 0h159v100H0z"/><path d="M98.909 50.07L85.263 23.574h6.876l6.77 14.354 6.77-14.354h6.876L98.909 50.071l13.646 26.497h-6.876l-6.77-14.354-6.77 14.354h-6.876zM43.545 38.958v-5.165h12.111v2.505c0 4.047-3.551 11.833-12.828 11.833C35.688 48.13 30 42.657 30 35.565S35.688 23 42.828 23c3.818 0 7.56 1.58 10.232 4.934l.305.462-4.352 3.315-.344-.463c-1.374-2.004-3.436-3.122-5.841-3.122-3.818 0-7.254 3.276-7.254 7.44 0 4.161 3.436 7.438 7.254 7.438 2.977 0 5.383-1.465 6.605-4.047zM85.1 35.565c0 7.092-5.65 12.565-12.828 12.565-7.14 0-12.828-5.473-12.828-12.565S65.133 23 72.272 23C79.45 23 85.1 28.473 85.1 35.565zm-5.536 0c0-4.163-3.436-7.438-7.292-7.438-3.818 0-7.253 3.275-7.253 7.438 0 4.162 3.435 7.438 7.253 7.438 3.856 0 7.292-3.276 7.292-7.438zM73.26 71.874c3.131 0 4.925-1.234 4.925-2.93 0-4.47-14.775.501-14.775-9.597 0-4.548 4.658-7.478 10.003-7.478 4.467 0 7.827 1.62 9.927 4.086l-3.971 3.585c-1.756-2.12-3.703-2.968-6.147-2.968-3.36 0-4.276 1.542-4.276 2.582 0 4.394 14.776-.578 14.776 9.598 0 5.242-5.27 8.248-10.653 8.248-4.657 0-8.285-2.159-10.575-4.856l4.008-3.623c1.528 1.926 3.971 3.353 6.758 3.353zm37.994-14.435v-5.166H130v5.166h-6.72v19.04h-5.307V57.44z" fill="#323232"/></g></svg>