<svg height="100" width="159" xmlns="http://www.w3.org/2000/svg"><g fill="none" fill-rule="evenodd"><path d="M0 0h159v100H0z"/><path d="M147.117 38.36a1.306 1.306 0 00-.647-.314c-.336-.366-.689-.802-1.182-.848a2.42 2.42 0 01.617-.177c.214-.034.436-.05.66-.064a11.793 11.793 0 01.302.386c.195.267.359.548.434.88l.157.492a2.737 2.737 0 00-.34-.355zm-4.811-1.774l-.003-.001c.514-.14.931-.511 1.454-.622.408.195.81.4 1.162.733l.002.002c-.4-.019-.82.252-1.164.029-.242-.067-.495.009-.689.111-.29-.019-.523-.13-.765-.251h.003zm2.895 25.308c-.022.293-.094.574-.238.802l-.67-.911v-.001c.024-.035.046-.072.066-.109.15-.282.204-.619.426-.85a.206.206 0 01.084-.018c.125 0 .217.13.27.214.056.274.084.58.062.873zm-1.903 1.683l.054-.11.326-.672.003.001v-.001c.326.205.615.53.736.874-.037.215-.169.429-.085.67.085.147.299.147.309.335-.103.195-.204.4-.355.577a1.432 1.432 0 00-.002 0c-.064-.66-.698-1.097-.986-1.674zm-2.949-4.264c.343-.118.571-.493.95-.528a2.132 2.132 0 01.002 0zm2.389.154l.061.08h.001l.001.002a.32.32 0 01.044.035c.173.167.153.494.419.494h.003c-.068-.358.01-.694.038-1.048l.002-.03a2.53 2.53 0 00.005-.262c-.14-.23-.35-.316-.58-.365a1.209 1.209 0 00-.018-.004c-.417-.084-.893-.057-1.125-.543h-.003l-.686.048c-.494.121-.363.697-.428 1.089-.054.116-.159.206-.16.343l.001.018a.688.688 0 00.036-.011zm-2.156-2.664a3.277 3.277 0 00-.73.22c-.231-.027-.371-.437-.493-.687-.009-.065-.055-.111-.038-.186.262-.055.569-.027.785-.223.417-.1.85-.111 1.27-.054a3.785 3.785 0 011.707.165c.047.596.81.65.829 1.255l.092.558c-.334-.204-.717-.353-1.033-.539.046-.149.046-.381-.159-.417a1.512 1.512 0 00-.077-.03.647.647 0 01.184.43l.091.557c-.334-.206-.717-.353-1.033-.538.046-.15.046-.383-.159-.42a1.621 1.621 0 00-.265-.086 3.279 3.279 0 00-.705.216c-.105-.013-.192-.103-.266-.221zm-1.248 5.02a.246.246 0 00-.071.069c-.412.278-.481.675-.8.917a.891.891 0 01-.14.087c1.614-.869 1.52-.917 1.42-.975.545-.044 1.167-.216 1.568.185.159.12.083.372.074.53l.781.65c.076-.391.216-.744.226-1.162-.067-.298-.214-.586-.475-.78-.513 0-.81-.6-1.36-.526-.288-.065-.54.19-.83.19-.13.13-.205.288-.316.428-.039.113-.13.275-.077.388zm1.735-6.615c.002-.1-.115-.15-.169-.226a.128.128 0 01-.016-.123c.223-.251.53-.073.81-.176.362-.052.736-.393 1.102-.208.026.013.052.03.078.049-.009.046.02.112-.017.157a.358.358 0 00-.008.298c.054.124.181.214.315.28.457.085.884.504 1.34.317v-.003a3.903 3.903 0 00-.019-.137c-.05-.329-.14-.638-.222-.956l-.002-.004c-.38-.065-.65-.38-1.005-.512-.159.15-.363.262-.558.243-.717-.167-1.574-.612-2.3-.157-.26.315-.726.223-1.08.36v.003c.01.178.027.354.054.525a3.15 3.15 0 00.086.386c.195.206.52.168.801.206l.81-.317v-.005zm-1.652-1.689c-.028.01-.028.039-.028.065v-.004.004a1.287 1.287 0 010-.004zm.04.107c.007.075 0 .157.09.181.242-.121.466-.288.689-.446.625 0 .998-.605 1.611-.605 1.026.187 2.041.391 2.934.892a1.396 1.396 0 00-.165-.514 2.253 2.253 0 00-.95-.908.594.594 0 00-.155-.03c-.227-.015-.416.116-.592.254a.724.724 0 01-.163.08c-.402.125-.18-.65-.572-.667h-.001l-.136.043c-.527.163-1.07.325-1.652.273-.372.14-.634.484-1.052.447-.009.153-.025.323-.025.49zm-.129-2.68a1.123 1.123 0 00-.264.18c-.195.166-.437.233-.67.297-.13-.251-.067-.622.065-.875.484-.306.911-.928 1.546-.558.063 0 .124.006.183.015.242-.14.502-.196.813-.014.297 0 .539.12.8.223.176.214.373.464.513.717-.33.004-.697-.073-1.057-.104l.06.102c-.239.004-.497-.035-.758-.069a1.142 1.142 0 00-.5.265c-.195.167-.437.232-.67.299a.805.805 0 01-.06-.478zm.706 11.116zm.416.215c0 .137-.019.286-.087.394v.001c.068-.11.086-.258.087-.395zm.468.587a.69.69 0 01.067.032c.293.218.601.497.58.885.023-.386-.286-.668-.58-.886a.438.438 0 00-.067-.03zm.646.923a.71.71 0 01-.001.02l-.045.045.045-.045a.7.7 0 00.001-.02zm-1.76-.51v-.001c-.018-.091.007-.182.006-.275.001.094-.024.185-.006.275zm.006-.289a.333.333 0 00-.034-.14c-.178-.12-.373-.25-.606-.194-.208.123-.475.29-.708.276.233.016.5-.152.708-.276.233-.056.428.076.606.196a.33.33 0 01.034.138zm-2.427-4.925l.001.006c-.252-.642-.596-1.255-.96-1.85-.036-.085-.073-.158-.092-.242l.29-.111a1.817 1.817 0 00-.001 0l-.289.111zm-.35-2.2a.397.397 0 00-.146-.024c-.073 0-.148.012-.215.02zm-3.657-3.955c.814.828 1.416 1.66 2.298 2.459v-.002h.001c.02-.362-.028-.697-.045-1.05-.13-.251-.373-.437-.58-.624-.66-.063-1.005-.953-1.703-.813l.029.03zm.924 10.047a3.404 3.404 0 01-.006.043c-.03.185-.073.367-.109.53.17-.256.355-.491.518-.744a3.29 3.29 0 00.216-.387.178.178 0 01.014-.079c.033-.084.12-.15.158-.248a.252.252 0 00.015-.1c.083-.269-.232-.15-.364-.175-.098-.026-.204-.086-.202-.203 0-.016.002-.033.007-.052a.978.978 0 00.104-.374c.03-.371-.11-.767-.18-1.11-.11-.383.048-.894-.13-1.229a.947.947 0 01-.23.211c-.336.233-.806.394-.761.836a.748.748 0 00.032.15c.476.437.309 1.07.271 1.656-.074.354.373.15.514.334.179.267.181.608.133.94.048-.33.045-.672-.135-.937-.14-.187-.586.019-.513-.335.039-.586.205-1.218-.269-1.655a.744.744 0 01-.033-.153zm-.686-6.52a8.644 8.644 0 01-.238-.61c-.205-.408-.642-.742-1.024-.974.456.007.997.111 1.36.417v.002c-.363-.308-.902-.41-1.36-.42.383.233.82.568 1.026.979.07.206.15.407.236.606zm.603 1.267c.136.28.27.562.389.85.128.587.232 1.116.384 1.688l.044.16c.066.165.028.49.29.463.074-.706.213-1.385.222-2.12-.187-.246-.423-.378-.657-.518a5.415 5.415 0 01-.17-.105l-.002-.001v-.064c.038-.16.168-.345.364-.316.083-.095.335-.187.223-.354a1.273 1.273 0 01-.121-.142c-.365-.49-.406-1.187-1.107-1.322a.488.488 0 01-.234-.199c-.082-.13-.113-.294-.13-.452zm-1.865-.577l.13-1.274a.209.209 0 01.053-.006c.096-.001.19.06.277.12l.07.045c.16.195.074.493.16.717.1.315.446.566.315.958-.147.128-.271.302-.443.362a.383.383 0 01-.078.018l-.484-.94zm-1.99 1.907c0-.024.001-.05.006-.078-.018-.286.133-.498.292-.707-.158.21-.31.422-.292.707a.521.521 0 00-.006.078zm.238.379c.134.091.294.164.39.278.17.204-.11.344-.11.54.063.082.123.167.177.255.243.39.381.826.382 1.318.14-.565.353-1.103.428-1.685-.038-.409-.69-.325-.587-.781.185-.464-.038-.92-.16-1.338-.032-.057-.098-.161-.163-.166h-.003a.06.06 0 00-.028.007c-.065.147-.167.277-.266.408zm-.047-4.126a.85.85 0 01-.185-.619 1.414 1.414 0 01-.006-.161c.005-.231.064-.436.117-.648a1.916 1.916 0 01.11.088 1.7 1.7 0 01.56.944c-.018.261-.185.456-.287.688a1.368 1.368 0 01-.309-.292zm-2.182-2.97c.485.373 1.257.411 1.815.223-.354-.193-.744-.407-1.034-.668zm.51 11.153c-.128-.454-.303-.9-.37-1.362l-.14-.299c.15.13.334.266.51.417-.176-.151-.36-.287-.51-.417l.14.298c.067.463.242.908.37 1.363zm.037.137c.116.453.17.917.012 1.42a.99.99 0 01.271.304c.053.086.099.177.146.267.038.073.078.144.124.211h.046c.046-.174.075-.35.092-.526.06-.642-.05-1.295-.14-1.93.057-.484-.248-.835-.588-1.127zm.108-9.633c-.054.02-.12.029-.17.053-.857.13-1.674-.241-2.316-.624-.038-.073-.149-.158-.159-.27.353.034.711-.445 1.005-.195-.291-.25-.652.229-1.005.195.01.111.121.195.16.27.643.38 1.46.753 2.316.622.048-.023.115-.032.17-.05zm-.65-.501c-.296-.183-.595-.364-.894-.423a.512.512 0 00-.096-.112zm-2.99-4.402c.25-.055.504-.182.752-.18-.247 0-.5.126-.751.18zm.107.195c.02.046.04.093.058.139.042.104.085.206.151.29.252.167.625.139.934.112a.362.362 0 01.175.002c.123.03.23.106.346.116a.287.287 0 00.193-.054c-.173-.11-.31-.265-.445-.428-.12-.143-.24-.292-.384-.417a.595.595 0 00-.383-.136zm1.226-2.525c-.064-.212-.18-.4-.256-.599-.167-.195-.224-.753-.558-.558-.253-.167-.317-.446-.476-.669a2.564 2.564 0 00-.043.527c0 .128.004.256.006.38l-.001.21c.363.399.717 1.042 1.361.845a1.144 1.144 0 00-.033-.136zm-2.533-3.934l.057-.284c.214-.624-.242-1.09-.465-1.583v.003a1.42 1.42 0 01-.002-.003l-.38 2.252.763-.243zm-15.978-4.847l.002-.001v1.089l-.736.427.019-.764c.034-.035.066-.072.098-.109.192-.228.354-.482.617-.643zm-1.46 5.445l-.27-.837c.02-.512.204-.94.428-1.368l.847-.26h.001l-.2.298-.2.297c.06.617-.098 1.163-.217 1.724.119-.56.275-1.106.216-1.724l.2-.297zm.373-.068l.016-.078zm17.27 8.053c.223-.197.501-.43.763-.512h.001l.362.304.567.476v.001l.002.002v.064c-.605-.018-1.265.194-1.695-.334zm-.37 3.482c.247.187.515.355.753.531.391.176.9.223 1.32.13h.002c-.42.093-.932.047-1.322-.13-.238-.176-.506-.344-.753-.53zm-.03-.909c.22-.044.452-.062.671-.104.176.166.204.399.335.585a8.548 8.548 0 001.098 1.088zm-1.59 12.003l.287-.112c.122.007.258-.07.38-.07.047 0 .092.011.134.043.214.184.399.334.427.63.204.14.456-.016.67.13.16.327.29.82.197 1.099v-.001l-.019-.026-.018.018-.029.028.017.011.011.007-.335.299c-.099-.126-.143-.286-.175-.456-.07-.373-.08-.791-.476-.977a.68.68 0 01-.162 0c-.379-.044-.647-.403-.91-.622zm0-4.601a.886.886 0 01.004-.024c.076-.396.412-.68.684-.98.605.272 1.02-.524 1.508-.539h.014c.14 0 .287.065.445.24.112.068.234.106.359.136.165.039.333.064.487.133a.925.925 0 01.53.25c.3.278.454.729.586 1.088-.336-.094-.765-.087-1.022-.34a.585.585 0 01-.113-.15c-.127-.095-.268-.259-.43-.217a.255.255 0 00-.081.04.619.619 0 01-.228.128c-.44.131-.87-.361-1.401-.211-.401.149-.782.353-1.164.53l-.163-.077-.015-.007zm-.995 3.853c.022-.065.042-.137.063-.211.087-.316.187-.669.578-.7.326-.295.781-.166 1.21-.267l.783-.243c.94 0 1.694.475 2.552.689.37.254.582.636.664 1.05a2.04 2.04 0 01.025.158v.001c.203.137.606.138.606.437v.006c-.16.373-.223.784-.382 1.163-.271-.557-.457-1.43-1.23-1.561-.101-.344-.222-.717-.558-.92l-.988-.13-.038.044.001.003c.107.282.553.483.555.808v.01a.456.456 0 01-.07.223c.232.325.716.36.895.76.232.317.026.754.092 1.117v.003l-.717.446c-.03-.689.167-1.628-.606-2.03-.643.197-.698-.64-1.155-.92-.187-.1-.204-.473-.474-.333-.485.325-1.203.092-1.697.4h-.11l.001-.003zm.446-13.658c.363.474.903.837 1.518.716-.316-.308-.68-.633-.699-1.07.094-.828-.819-.895-1.266-1.322.15.558.13 1.183.447 1.676zm-.446 11.922c.13-.36.27-.79.446-1.144.382-.121.764-.316 1.164-.335a2.237 2.237 0 01.913-.194l.028.13c.201-.002.404-.003.607.002 1.063.028 2.131.216 2.857 1.066l.067.652c-.411-.276-1.007-.232-1.324-.649-.399-.214-.8-.224-1.295-.243-.409.14-.893.103-1.294.27-.062-.03-.082-.078-.095-.13-.016-.064-.02-.135-.08-.18a.191.191 0 00-.048-.025c-.66.187-1.322.336-1.882.782h-.065l.001-.002zm0-7.337v-.001c.54-.065 1.08-.131 1.584-.297h.205l.445.65c.256.146.52.276.778.416a6.93 6.93 0 01.406.237c-.01.063-.06.09-.12.112-.05.02-.108.034-.151.064-1.305.288-2.216-.502-3.148-1.181h.002zm-.078-2.393h.006c.302.018.627-.06.853-.131-.197-.335-.827-.53-.94-.893a8.105 8.105 0 00-.4-1.85c-.326.79-.72 1.73-.142 2.584.15.195.38.274.623.29-.245-.016-.474-.094-.624-.288-.576-.857-.183-1.796.143-2.586zm-1.624 1.12v.003a2.148 2.148 0 00-.287-.145c-.42-.182-.978-.379-.997-.835.02.456.578.652.997.835zm-.021-.05a3.576 3.576 0 01-.011-.027c-.234-.576-.338-1.259-.408-1.888zm-.45-1.926c-.263.31-.535.52-.784.837.248-.32.52-.527.784-.837zm-.472 7.772c.284.232.626.366.98.447l-.001-.003h.002a.157.157 0 01-.024-.037c-.004-.027.075.026.09-.025l-.558-1.228a2.4 2.4 0 00-.003 0c-.279.008-.567.064-.827.046v.002l.002.02c.018.197.064.393.126.573.067.076.138.144.213.205zm1.4-2.984c-.344.152-.747.286-1.106.125-.672-.334-.746-1.218-1.473-1.478a.88.88 0 01-.157-.484l1.678.4c-.01.24.185.362.382.444.277.345.605.57.893.895a9.59 9.59 0 01-.217.098zm-3.821-3.65a1.932 1.932 0 01-.635.951l-.27-1.227v-.001c.446-.205.663-.465 1.037-.892.008.41-.02.807-.133 1.168zm-1.898 5.836l-.003-.003c.498.08 1.044.133 1.517-.012.032-.01.063-.021.095-.033h.002l.165.552.084.276c-.325.213-.79.251-1.164.13l-.699-.91h.003zm-.996-.826h-.002c.16-.25.504-.464.578-.78.465-.315.615-.81.857-1.246.344-.167.668-.088 1.024-.14l.024-.004c.05-.008.1-.019.152-.033h.001c-.074.576-.596 1.022-.94 1.516-.16.088-.32.167-.485.24a11.239 11.239 0 01-1.209.447zm-1.992-8.166c.14.726.449 1.385.867 2.01l.111-1.386zm1.042 6.529c-.34.065-.7.088-1.042.03.268-.212.55-.445.845-.625.054-.033.108-.063.162-.092l.894-.873h.828c-.211.537-.548 1.213-1.143 1.42a1.117 1.117 0 01-.104.03 4.21 4.21 0 01-.001 0c.03-.007.059-.016.088-.025zm-2.565-5.84a4.778 4.778 0 01-.299-.39c-.041-.21-.092-.42-.127-.635.035.215.086.427.128.635.088.129.188.26.298.39zm1.268 1.012c.088.039.178.07.267.096v-.001h.002c-.084-.78-.754-1.321-1.099-1.99l-.018-.224a2.556 2.556 0 00-.363-.287 4.603 4.603 0 00-.514-.289 2.079 2.079 0 00-.006.331c.006.11.02.22.037.327zm-1.297 5.22c-.144-.012-.29-.025-.438-.033l.001-.001h-.001c.782-.382 1.473-1.134 1.817-1.898-.344.762-1.032 1.515-1.816 1.898zm1.35-.23h.001l.523-1.673h-.003c-.107-.007-.216-.04-.322-.048zm-2.578-1.933l-.205.21a5.88 5.88 0 01.1-.942c.054-.307.12-.607.17-.908.177-.063.392-.133.601-.137h.018a.69.69 0 01.358.089v.001c-.064.548-.408 1.042-.828 1.47zm-1.042-1.496c-.05-.203-.108-.409-.158-.587.05-.191.213-.346.378-.49-.164.144-.328.3-.378.49zm.082.368v.004c.164-.365.43-.603.719-.849.168-.143.344-.288.511-.463a1.344 1.344 0 00-.02-.013c-.258-.168-.574-.25-.854-.303v-.019a2.42 2.42 0 01-.082.077c-.043.04-.09.08-.136.12zm4.563 8.023v.008c-.26-.594-.679-1.405-1.434-1.517-.371-.231-.642-.622-.894-.966-.316-.159-.717-.149-1.024-.334-.456-.01-.874.195-1.34.223l-.111-.178.753-.939h.002c.753.195 1.704 0 2.198.717.353.24.781.408 1.07.714-.037.111-.065.168-.027.288.195.167.465.289.65.475.151.363.272.83.16 1.228v.288a15.707 15.707 0 00-.003-.007zm-5.79-.736a.546.546 0 01-.009-.032c.103-.073.184-.174.257-.283.2-.301.342-.665.73-.664-.388 0-.53.363-.73.664zm.132.232a.544.544 0 00.055.052c.194-.052.384-.141.58-.205-.196.064-.386.154-.58.205a.493.493 0 01-.043-.04zm.66-.16c.2-.063.405-.097.628-.034-.223-.062-.43-.029-.628.033zm2.239 1.173c.159.091.322.171.491.238l.107-.018-.107.018a3.82 3.82 0 01-.491-.238zm.761.192c.155.05.326.063.439.213-.113-.149-.283-.16-.439-.213zm.444.22l.02.031a.438.438 0 00-.02-.031zm.256 1.807zm.705-.836c-.071-.178-.076-.413-.117-.62.04.207.046.441.117.62zm-.94-1.637zm-.245-.193c-.345-.24-.727-.402-1.048-.7a2.12 2.12 0 01-.002 0c.322.3.705.46 1.05.7zm-1.837-1.403zm-.153-.051zm-3.018 2.67c.211.058.404-.112.615-.02.857.316 1.75.641 2.395 1.357l.762 1.943v.001l-.762-1.943c-.644-.716-1.537-1.042-2.396-1.357-.21-.093-.403.078-.614.02zm4.006 2.548l-.233.733v-.001zm.148-.466v-.001l-.25-.651c-.216-.464-.802-.426-1.203-.445a.32.32 0 01-.02-.024c-.131-.18.031-.385.087-.554.051-.174.032-.3-.03-.395a.508.508 0 00-.009-.014c-.18-.253-.668-.288-.903-.482a.427.427 0 000-.023c0-.373-.47-.24-.736-.275l-.093-.112c-.054-.084-.195-.084-.27-.02-.02-.026-.056-.045-.036-.092l-.207.047c-.287.251-.483.577-.492.957l.008.002zm-6.06 3.48c-.091-.02-.044-.168-.092-.251.019-.632.052-1.242.15-1.824.1-.582.265-1.137.549-1.657.456-.513 1.043-.782 1.695-.848l.557.196-.4.511c.225.13.51.298.727.512.216.214.368.474.326.79l-.064.53c-.364.595-.699 1.157-1.193 1.678h-.064c-.048-.651.195-1.175.269-1.808.01-.094.178-.167.066-.252-.354-.028-.616-.288-.979-.288-.235.154-.26.42-.37.64a.717.717 0 01-.057.094c-.195.39-.483.721-.72 1.077-.012.016-.022.032-.032.048-.17.259-.309.532-.365.852h-.002c-.093-.019-.045-.166-.093-.251.019-.632.052-1.242.15-1.824zm-2.116-.177v.001c-.223.23-.483.389-.734.558-.438-1.146-.17-2.488.195-3.577-.363 1.087-.634 2.431-.195 3.575.25-.166.511-.326.734-.557zm.076-1.966c.061-.2.15-.39.278-.568.456.14.764.577.94 1.004.06-.074.11-.154.154-.238.186-.356.234-.791.136-1.212.02-.41-.447-.316-.67-.484v-.001l-.001-.001c.03-.135.046-.28.077-.416.047-.203.127-.39.332-.51a.703.703 0 01.02-.011l-.206.02-.912.091c-.212.3-.438.595-.606.915a3.024 3.024 0 00-.024.046zm-2.91 1.87c.066.089.146.179.235.255.124.106.265.184.406.193h.002l.045-.474c.112-.66-.241-1.361.13-1.919.263.084.523.214.747.334.112-.613-.048-1.33-.634-1.702l-1.025 1.143c-.056.717 0 1.39.045 2.097.015.024.032.048.05.073zm20.369-20.615c.064-.194.115-.395.157-.598l.032.02c.262-.259.467-.557.652-.827 1.38.466 2.57 1.498 3.708 2.457l.046-.783c-1.08-.958-2.281-1.637-3.53-2.166.047-.252.104-.493.114-.764a9.172 9.172 0 014.104 1.256l-.018-.67c-1.285-.688-2.691-1.143-4.227-1.162a.46.46 0 01-.066-.288c.745-.12 1.275-.893 1.453-1.563.383-.437.932-.91.802-1.562.015-.054.035-.111.054-.168.051-.16.093-.333.038-.484-.177.233-.447.29-.67.334.391-.713.578-1.71.27-2.519.205-.074.428-.111.623-.223l-.018-.02.513-.445c.68-.465.418-1.348.67-2.01-.336-.519-.439-1.152-.923-1.59l.029-.018c-.382-.484-1.071-.427-1.593-.669-.69-.232-1.22.242-1.714.558-.214.037-.084.316-.317.306-.13.344-.29.716-.382 1.098-.922-.13-1.917-.028-2.653.494-.393-.29-.865-.345-1.323-.475-.336-.067-.716.054-.958-.13-.354-.399-.43-1.125-1.035-1.228-.214-.075-.26-.308-.26-.512-.401-.066-.755-.251-1.145-.334-.597-.27-1.071.159-1.518.446-.197.083-.42.111-.606.222-.335.523-.651 1.053-.867 1.63.067.473.27.89.513 1.292.214.604.884 1.08 1.452 1.32a5.462 5.462 0 000 2.947s-.015.014-.015.01c0 .004-.03.028-.03.028-.088 0-.184.018-.258-.028h-.011c.132.889.55 1.668 1.228 2.335.243.083.186.372.288.557a.434.434 0 01.047.335 7.331 7.331 0 00-3.913.977c-.296.15-.166.559-.195.847.82-.54 1.704-.94 2.682-1.117.42-.026.894-.13 1.296-.02l.045.803c-1.107.576-2.319.91-3.267 1.86.018.286-.038.621.046.864l.847-.689c.82-.623 1.676-1.153 2.617-1.496.251.296.512.614.847.8a6.283 6.283 0 011.834-.8c.345-.205.896-.02 1.119-.428l.157-.847c-.026-.018-.046-.056-.092-.047-.438-.252-.728-.688-.689-1.199-.15.074-.316.121-.495.13-.147-.036-.287-.075-.353-.224-.008-.185-.102-.464.085-.603.604-.372 1.387-.39 2.15-.336.568.075 1.387.046 1.584.716-.027.197-.01.41-.206.54-.205.112-.437-.01-.623-.094-.149.458-.4.968-.912 1.117l.065.54c.063.242.082.641.465.557.318.077.622.185.918.315-1.391-.273-2.957-.218-4.194.42-.052.322-.044.66.028.98l-.029.015c-.101.633.03 1.332.43 1.832l.56-.54c.025 0 .048.004.067.013l-.003.072a1.2 1.2 0 00.043.039l-.044.956c.27.253.606.335.96.354.028-.28.242-.474.364-.716.101-.195.037-.484.241-.624l.065.066c.067.306.048.65.206.92l.065.465c.41.02.781-.093 1.1-.241-.02-.354.102-.643.156-.968.085-.112-.102-.316.131-.306.13.278.363.566.494.863.54-.547.763-1.264.894-2.006a.559.559 0 00-.202-.169zm19.32 1.641a.517.517 0 00-.001.039c0 .072.016.14.065.203.222-.252.596-.243.895-.354.826-.074 1.619.185 2.39.372-.194-.307-.324-.65-.537-.927-.43-.114-1.081.184-1.155-.449-.26-.223-.67-.064-.94-.045a2.095 2.095 0 00-.625.688c-.006.155-.08.32-.092.473.011-.153.086-.32.091-.475.15-.27.365-.5.625-.688.269-.017.68-.176.942.047.073.632.724.335 1.154.447.214.279.344.622.54.93h-.002zm19.6.692a17.52 17.52 0 00-.653-1.644c-1.313-2.708-3.095-5.627-5.846-7.34-1.548-.965-2.973-2.458-3.848-4-.474-.429-.931-.996-1.546-1.099.168.28.354.549.402.874l-.039.047c-.65.018-1.164-.325-1.611-.745l.495-.446c-.188-.092-.401-.13-.605-.175-1.883-.215-3.43.649-5.095 1.07l-.028.092c1.024.455 1.238 1.58 1.834 2.344.149-.178.402-.048.606-.066.297.018.577.232.864.159.01-.252-.128-.447-.176-.67.176-.085.392-.01.587 0 .54.317 1.408-.056 1.742.67-.615.037-1.192.166-1.77.306.037.232.27.419.252.652a5.883 5.883 0 00-1.565-.4l-.027.082c.699.818 1.656 1.302 2.635 1.593 1.406.325 2.644-.345 4.003-.113 3.335 1.526 6.184 5.015 7.423 8.327.062.16.12.32.175.482 1.037 3.024 1.234 6.743.195 9.896-.553 1.314-1.162 2.55-2.14 3.618a7.516 7.516 0 01-1.22 1.2c-1.398 1.087-3.12 1.566-4.896 1.079-.112-.074-.337-.094-.3-.289.063-.258.12-.522.17-.79.296-1.513.43-3.103.353-4.691-.004-.069-.005-.137-.008-.204-.098-2.309-.558-4.384-1.408-6.38-.544-1.146-1.192-2.395-2.006-3.516-.972-1.338-2.18-2.494-3.731-3.07-.95-.252-2.124-.297-2.84.493-.513.447-.727 1.051-.653 1.711-.8.509-1.702.782-2.682.866-.24.02-.487.107-.734.106-.24.011-.47 0-.695-.029-1.181-.146-2.373-.778-3.28-1.506-.019-.482-.048-.94-.067-1.45-.521-.27-.948-.783-.986-1.386l.048-.046c.298.092.557.241.827.4-.121-.726-.26-1.443-.623-2.075-.335-.139-.673-.25-.988-.42-.363-.24-.596-.677-.65-1.078.324.318.893.205 1.144.54-.437-1.293-.447-2.77-1.164-3.952-.364-.875-1.314-1.274-1.965-1.917-.252-.305-.353-.734-.81-.78-.372-.094-.401-.513-.466-.781.233.026.428.185.625.222-.541-1.432-1.016-3.022-2.478-3.933l-.252.157a15.47 15.47 0 01-1.741.14c.252-.373.698-.53 1.053-.698-.411-.306-.749-.381-1.261-.465-.298.3-.835.446-1.217.53l-.046-.036c-.009-.335-.086-.745.416-.828-.484-.232-1.285-.14-1.778 0-.14.363-.539.688-.512 1.115-.287.298-.491.697-.79.913-.009-.717.295-1.378.425-1.981-.419.157-.844.38-1.253.576-.663-.381-1.36-.763-2.065-1.05-.066-.029-.207-.057-.178.064.605.437.371 1.255.435 1.879l-.382-.316c-.186-.474-.724-.818-.816-1.34-.634.121-1.039.29-1.626.54l-.082.046c.437 0 .81.344 1.024.688-.66.038-1.247-.223-1.897-.288-.067-.066-.122-.14-.226-.13-.326.121-.604.354-.893.577-.642.631-1.296 1.33-1.602 2.166.214.037.485.028.642.159-.353.213-.661.576-1.005.78-.122.485-.103 1.032-.132 1.564-.268.408-.63.771-.81 1.226-.576 1.87-.726 3.944-.64 6.064-.189.176-.43.29-.607.429l.02 1.897h.045c.085-.4.56-.624.848-.893h.092c-.044.428-.102.855-.111 1.293l-.54.447c-.539.475-.083 1.19-.13 1.784.038.158.064.391.177.429.065-.232.27-.4.4-.604.233-.057.437-.243.651-.27-.12.463-.278.92-.465 1.366a1.664 1.664 0 00-.285.232.674.674 0 00-.188.346c.418 2.204 1.077 4.38 1.832 6.454-.513.864-.803 1.883-1.23 2.777-.06.125-.116.25-.167.381-.428 1.081-.559 2.29-1.09 3.33a3.697 3.697 0 00-.69-.364c-1.007-.334-2.17-.12-2.905.65-.653-.12-1.323-.009-1.836.335-.368.276-.651.609-.814.997a1.99 1.99 0 00-.144.883c-.42.289-.643.734-.782 1.181-.197 1.006.157 2.05.735 2.822h16.456c-.242-.288-.466-.688-.634-1.032-.353-.532-.111-1.284-.15-1.898.336-.675.677-1.356 1.06-2.017.078-.133.156-.263.236-.392l.755-.288c.399 0 .736-.288 1.116-.186.514.513.514-.51 1.007-.558 1.155-.149 2.3-.037 2.951.94 0 .13.207.13.16.252-.15.045-.29-.048-.448-.048-.707-.176-1.537-.624-2.235-.223-.027.167-.062.337-.096.503a5.338 5.338 0 00-.082.52c.456.13.84.455 1.183.81.233-.456.728-.66 1.165-.81.382.083.8.093 1.118.334.587.54.297 1.461.243 2.15.53.296 1.117.465 1.656.752-.252.225-.585.317-.894.43l-.893-.179c-.102-.073-.281-.073-.318-.203-.297.315-.66.735-.847 1.143h12.758c-.168-.382-.362-.68-.595-1.032-.262-.558-.157-1.322-.186-1.917l1.192-1.813c.652-.01 1.388-.251 2.096-.13a.837.837 0 00.102-.055c.294-.202.382-.673.82-.615.781-.212 1.377.14 1.964.494a.864.864 0 01-.058.121c-.246.393-.706-.045-1.042.074-.14.15.067.325.093.493.122.166-.121.147-.204.176a.636.636 0 01-.559-.176c-.037-.047-.009-.101-.082-.111-.17.277-.411.53-.475.844.213.206.501.41.605.671.214.307-.168.54-.243.81-.028.054-.113.054-.14 0-.196-.112-.362-.391-.576-.318-.188.828.063 1.656-.048 2.484.363.085.791-.018 1.183 0l.16-1.749c.165-1.133.837-2.082 1.628-2.95.856-.582 1.407.57 2.04.97.1.018.066.13.11.194-.01.187-.203.261-.334.318-.392.138-.68-.29-.922-.541-.233.251-.335.585-.605.782l.091.027c.31.308.606.633.673 1.043-.038.371-.223.734-.56.922a9.422 9.422 0 01-.623-1.34c.01.018-.01.027-.029.046-.512.138-.65.714-.735 1.181.028.457-.317.641-.224 1.097h6.64c.737-.112 1.518-.093 2.105-.633 2.487.382 5.01-.233 6.966-1.6a14.51 14.51 0 002.709-2.845c.66-.926 1.183-1.792 1.52-2.827.25-.641.45-1.307.6-1.99.709-3.224.337-6.829-.712-9.897zm-47.205-16.107l.271.029c.726.362 1.899.547 1.965 1.599-.737.289-1.444.679-2.03 1.274-.447-.455-1.351-.205-1.5-1.004.14-.754.409-1.703 1.294-1.898zm9.64.4l.828-.26c.475.223.922.5 1.36.818.344.631.29 1.488.13 2.195-.252.278-.801 0-1.005.446h-.039c-.306-.874-1.182-1.656-1.992-2.054.13-.447.27-.886.717-1.144zm-8.94 4.317c.847-.076 1.667.044 2.542-.03.213.094.437.279.538.493-.028 1.005-.334 1.963-.38 2.995-.382.157-.755.475-.848.893-.344.102-.653.306-.988.464-.147-.315-.122-.79.14-1.05.363-.51 1.305-.392 1.23-1.2.243-.39.01-.893.017-1.301-.092-.308-.185.102-.334.093-.298.064-.604.083-.866-.067-.196-.204-.437-.372-.494-.65-.26-.13-.568-.334-.698-.605zm6.052.481c.233-.325.586-.353.922-.417l2.412.045c.103.094-.093.177-.093.289-.15.14-.364.178-.494.307-.317.009-.288.381-.512.54-.344.344-.847.185-1.248.13-.139-.104-.298-.242-.364-.4l-.112.111c.14.522.104 1.099.207 1.628l.577.382c.009.855 1.015.621 1.452 1.096-.103.308-.307.567-.53.828a3.169 3.169 0 00-1.183-.717c-.039-.5-.587-.799-.893-1.05-.086-.911-.103-1.842-.252-2.725zm-1.984 27.998c.364-.232.95-.289 1.034-.827-.148-.113-.278-.253-.447-.29l-.382.112c.028-.224.149-.473.225-.715l1.228-.4c-.168.557-.232 1.255-.29 1.897.113.949.253 1.962.737 2.753h-1.322c-.149-.874-1.062-1.507-.783-2.53zm2.426-1.127h.074l.893.811.13-.028c-.073.949-.12 1.879-.13 2.864h-.967c-.198-.92-.523-1.889-.485-2.883.167-.25.279-.567.485-.764zm1.836.67c.179-.232.252-.625.607-.67.251.008.484.045.671.223.327.408.008.931-.111 1.339-.13.624-.356 1.274-.56 1.86h-.94zm14.93.353c.205.261.27.614.577.847.27-.373.334-.95.204-1.423l-.269-.272c.346-.082.709-.111 1.053-.175-.149.493-.43.94-.382 1.516.01.838.15 1.674.223 2.548h-1.024c-.373-.819-.746-1.599-.717-2.548.111-.168.185-.363.335-.493zm-22.201-22.866c.399.057.82-.121 1.163.075-.073.132-.27.186-.427.224l-.625.287c-.233-.054-.102-.427-.111-.586zm1.767-7.666c.4-.13.83-.399 1.257-.27-.306.308-.549.706-.782 1.079l-1.276-.028c.14-.335.495-.613.801-.781zm3.913-.275c.53-.092.502.596.986.622.086.112.207.214.16.382-.281.112-.69.057-1.005.13-.42-.232-.15-.958-.81-.91-.038-.058-.112-.169-.02-.205.205-.075.476-.047.69-.019zm.407 8.916h1.118l-.14.586-1.119-.474c-.026-.093.076-.12.14-.112zm-3.968 8.787c.056-.465-.139-1.006-.193-1.479-.281-.187-.67-.168-.96-.353.02.734.594 1.358 1.153 1.832zm0 0c.054-.465-.138-1.004-.193-1.478-.28-.188-.672-.169-.96-.354.02.736.595 1.358 1.153 1.832zm-28.28-14.75h-1.156l-.054.396c-.078.589-.311 1.578-.985 1.578-.192 0-.67-.09-1.21-.336-2.341-1.014-5.378-1.639-7.933-1.639-4.973 0-9.484 1.779-12.705 5.012-2.96 2.97-4.58 7.01-4.556 11.379.021 4.184 1.667 7.625 5.039 10.525C66.153 68.762 69.96 70 75.489 70c4.606 0 7.243-.662 11.29-2.83l.709-.384V58.98c0-3.326.408-3.845 3.118-3.954l.441-.017v-1.16H77.803v1.16l.441.017c3.02.117 3.59.657 3.59 3.408v7.234c-2.24 1.477-3.869 2.036-5.922 2.036-3.038 0-5.741-1.172-7.817-3.243-2.431-2.43-3.618-5.968-3.618-9.968 0-4.308 1.15-7.983 3.516-10.344 1.883-1.88 4.385-2.926 7.24-2.926 2.55 0 5.51 1.092 7.54 2.701 1.654 1.352 2.51 2.657 3.156 4.817l.099.327h1.13zM48.794 59.732s-.262-1.221-.3-1.906v-8.934c-.058-5.21.653-7.804-3.908-7.785v-1.17h10.493v1.17c-4.698-.02-4.107 2.574-4.133 7.785v20.863l-1.493-.015L26.79 46.059s.256 1.219.293 1.904v14.63c-.128 5.338.534 5.983 3.977 5.921v1.219H20.12v-1.219c3.449.003 4.126-.454 4.122-6.355v.353-14.42l-.029-2.289c.13-2.962-.966-4.68-4.311-4.652V39.98h10.071zM.99 41.155c1.198 0 2.033.254 2.552.771.58.579.84 1.537.84 3.102v19.563c0 2.707-.568 3.915-3.922 3.915H0v1.2h15.071v-1.195l-.455-.005c-3.321-.04-3.882-1.24-3.882-3.915V45.028c0-1.561.26-2.514.84-3.093.524-.524 1.374-.78 2.597-.78h.9v-1.217H0v1.217z" fill="#323232"/></g></svg>