<svg height="100" width="159" xmlns="http://www.w3.org/2000/svg"><g fill="none" fill-rule="evenodd"><path d="M0 0h159v100H0z"/><path d="M157.084 72H140.44a1.922 1.922 0 01-1.917-1.928c0-1.064.858-1.928 1.917-1.928h14.727V40.39l-14.714-8.289-11.53 5.686a1.912 1.912 0 01-2.565-.882 1.933 1.933 0 01.877-2.58l12.428-6.128a1.907 1.907 0 011.773.044l16.577 9.328c.61.34.987.985.987 1.686v30.817A1.922 1.922 0 01157.084 72zM.741 58.794C.307 58.486 0 57.921 0 57.304c0-1.028.818-1.824 1.84-1.824.51 0 .868.18 1.124.359 1.354 1.002 2.835 1.62 4.573 1.62 1.609 0 2.58-.644 2.58-1.697v-.051c0-1.003-.613-1.516-3.602-2.287-3.603-.925-5.927-1.927-5.927-5.5v-.051c0-3.263 2.606-5.422 6.259-5.422 2.172 0 4.062.566 5.672 1.593.434.258.868.797.868 1.568a1.815 1.815 0 01-1.84 1.825c-.382 0-.689-.104-.995-.283-1.303-.771-2.53-1.208-3.756-1.208-1.507 0-2.3.694-2.3 1.567v.052c0 1.182.767 1.567 3.858 2.364 3.628.951 5.672 2.261 5.672 5.396v.051c0 3.572-2.708 5.577-6.566 5.577a11.5 11.5 0 01-6.719-2.159zm19.851 1.902V42.708h11.88c.971 0 1.763.796 1.763 1.773s-.792 1.748-1.763 1.748h-7.971v3.648h6.821c.972 0 1.763.797 1.763 1.774s-.791 1.747-1.763 1.747h-6.821v3.777h8.1c.97 0 1.762.797 1.762 1.773a1.75 1.75 0 01-1.763 1.748zm19.469-8.943v-.051c0-5.114 3.832-9.302 9.324-9.302 2.683 0 4.497.719 5.979 1.824.408.309.766.874.766 1.568a1.924 1.924 0 01-1.941 1.927c-.537 0-.894-.205-1.176-.386-1.098-.822-2.247-1.284-3.653-1.284-3.015 0-5.186 2.518-5.186 5.602v.05c0 3.085 2.12 5.654 5.186 5.654 1.66 0 2.76-.513 3.883-1.413a1.837 1.837 0 011.176-.437c.996 0 1.84.822 1.84 1.825 0 .616-.307 1.104-.665 1.413-1.61 1.413-3.5 2.261-6.362 2.261-5.263 0-9.171-4.085-9.171-9.25zm22.508 1.234v-8.455c0-1.104.868-1.978 1.967-1.978 1.098 0 1.967.874 1.967 1.978v8.352c0 2.93 1.457 4.446 3.858 4.446 2.402 0 3.858-1.465 3.858-4.318v-8.48c0-1.104.868-1.978 1.967-1.978 1.098 0 1.967.874 1.967 1.978v8.326c0 5.448-3.04 8.12-7.843 8.12s-7.741-2.698-7.741-7.991zm22.738-8.403c0-1.105.868-1.979 1.968-1.979h.408c.945 0 1.507.463 2.044 1.156l7.588 10.022v-9.276c0-1.08.868-1.953 1.941-1.953s1.942.874 1.942 1.953V58.82a1.958 1.958 0 01-1.967 1.979h-.128c-.945 0-1.507-.463-2.043-1.157L89.19 49.26v9.636c0 1.08-.868 1.953-1.94 1.953a1.947 1.947 0 01-1.943-1.953zm23.326 16.112V42.708h6.975c5.62 0 9.504 3.88 9.504 8.943v.05c0 5.063-3.883 8.995-9.504 8.995zm6.975-3.572c3.219 0 5.39-2.184 5.39-5.37v-.052c0-3.186-2.171-5.422-5.39-5.422h-3.041v10.844zm15.355-5.37v-.052c0-5.114 4.01-9.302 9.529-9.302 5.518 0 9.478 4.137 9.478 9.25v.052c0 5.113-4.01 9.302-9.53 9.302-5.518 0-9.477-4.137-9.477-9.25zm14.894 0v-.052c0-3.084-2.248-5.653-5.417-5.653-3.167 0-5.364 2.518-5.364 5.602v.05c0 3.085 2.247 5.654 5.416 5.654s5.365-2.518 5.365-5.602z" fill="#323232"/></g></svg>