<svg height="100" width="159" xmlns="http://www.w3.org/2000/svg"><g fill="none" fill-rule="evenodd"><path d="M0 0h159v100H0z"/><path d="M58.494 34.467l-2.758-.016s-9.99 14.788-10.035 14.773c.044.06-11.57-14.55-11.622-14.58l-4.16-.02c-.19-.001-.176.238-.176.238l-.03 25.002c-.002 1.265.809 2.175 1.81 2.032l2.315-.497s.179-.031.179-.276l.037-19.304c-.02.005 10.788 12.457 10.788 12.457s.814 1.084 1.59-.163c0 0 9.247-13.287 9.226-13.305l.055-.09v19.454c-3.453 1.08-24.598 6.468-24.598 6.468-.006.002-1.585.392-3.077-.152-1.759-.64-2.888-2.086-2.888-5.012V30.042l.002-.169 33.497.984.004-3.052c-11.229-1.209-18.856-1.623-18.856-1.623l-17.799-1.18C20.894 24.953 20 26.037 20 27.423v35.15c.04 3.564.517 5.553 3.498 7.5 3.544 2.315 8.232.917 8.232.917l.061-.02 10.65-3.271c10.722-3.22 15.956-5.49 15.956-5.49.12-.042.218-.144.218-.264l.002-.56.048-26.733s.002-.186-.17-.186zm51.239 40.355h1.33V64.035h-1.33zm-3.256-1.628c-.584.177-2.074.584-3.12.584-.693 0-1.295-.478-1.295-1.293v-.974c0-.336.372-.904 1.1-.904h3.315zm-.62-6.944h-3.884v1.188h3.494c.817 0 1.01.407 1.01.884v1.187h-2.96c-2.432 0-2.75 1.648-2.75 2.41v.496c0 2.001 1.418 2.585 2.235 2.585h.514c1.188 0 2.306-.531 3.069-.833l.318.655h.87v-6.695c0-1.01-.549-1.877-1.915-1.877zm-8.073 0h-.993v8.572h1.331v-7.049c.284-.088 1.295-.319 1.79-.319h.338v-1.38c-.497 0-1.757.495-2.2.796zm-5.95 5.669v-4.553h3.281V66.25h-3.281v-1.363h-.993l-.337 1.363h-1.029v1.116h1.03V71.9c0 2.921 2.056 3.099 2.394 3.099 1.277 0 1.79-.195 2.57-.443v-1.08s-1.152.23-2.18.23c-.958 0-1.455-.584-1.455-1.788zm-6.367-5.845c-1.65 0-3.956.814-3.956.814l-.266-.638h-.993v8.572h1.33v-6.943s2.625-.549 3.583-.549c1.366 0 1.454 1.046 1.454 1.772v5.72h1.349v-5.65c0-2.904-1.472-3.098-2.501-3.098zm-12.795 2.603c0-.745.39-1.276 1.278-1.276h1.791c.886 0 1.276.531 1.276 1.276v1.506h-4.345zm0 3.666v-1.116h4.824c.39 0 .71-.301.71-.85V68.66c0-1.082-.567-2.41-2.75-2.41h-1.188c-2.057 0-2.926 1.382-2.926 2.923V71.9c0 2.921 2.235 3.099 2.572 3.099 2.75 0 4.452-.638 4.452-.638v-1.134c-.568.178-2.573.497-4.24.497-.833 0-1.454-.691-1.454-1.382zm-3.09-4.889V66.25h-5.695v1.204h4.31l-4.7 6.094.388 1.274h6.103v-1.291h-4.966zm69.23-10.3h-3.867v-1.789c0-.338.247-.71.692-.71h3.67V53.47h-3.068c-1.542 0-2.59.691-2.59 2.054v1.506c0 .833.497 1.294 1.455 1.294h3.547v1.665c0 .495-.266 1.01-1.118 1.01-1.986 0-4.043-.355-4.043-.355v1.222s1.348.354 3.92.354c.337 0 2.59-.018 2.59-2.586v-1.292c0-.196-.089-1.188-1.189-1.188zm-10.154 1.983v-4.552h3.281v-1.116h-3.28v-1.364h-.994l-.337 1.364h-1.03v1.116h1.03v4.534c0 2.923 2.057 3.1 2.394 3.1 1.277 0 1.792-.195 2.573-.443v-1.081s-1.154.232-2.182.232c-.959 0-1.455-.586-1.455-1.79zm-5.285-6.695h1.543v-1.558h-1.543zm.105 9.6h1.313v-8.573h-1.313zm-7.597-6.146c0-.744.39-1.275 1.277-1.275h1.792c.887 0 1.277.53 1.277 1.275V57.4h-4.346zm0 3.666v-1.116h4.825c.39 0 .708-.301.708-.85v-1.718c0-1.08-.566-2.41-2.748-2.41h-1.189c-2.057 0-2.926 1.382-2.926 2.923v2.728c0 2.923 2.235 3.1 2.572 3.1 2.75 0 4.452-.638 4.452-.638v-1.133c-.568.176-2.572.496-4.24.496-.833 0-1.454-.69-1.454-1.382zm4.204-8.732l-1.01-1.027-1.634 1.788.782.763zm-10.322 8.307v-4.552h3.28v-1.116h-3.28v-1.364h-.995l-.336 1.364h-1.029v1.116h1.03v4.534c0 2.923 2.057 3.1 2.393 3.1 1.278 0 1.792-.195 2.572-.443v-1.081s-1.153.232-2.182.232c-.957 0-1.453-.586-1.453-1.79zm-5.286-6.695h1.543v-1.558h-1.543zm.106 9.6h1.312v-8.573h-1.312zm-3.776 0h1.33V51.077h-1.33zm-3.74 0h1.313v-8.573h-1.313zm-.106-9.6h1.543v-1.558h-1.543zm-8.16 2.603s2.626-.512 3.691-.512c.655 0 1.383.335 1.383 1.416v3.578c0 .868-.39 1.275-1.294 1.275H88.8zm6.386 4.074v-2.728c0-2.922-1.916-3.099-2.501-3.099-1.4 0-3.476.655-3.884.797v-3.012h-1.33v10.115s.072.85.869.85h4.008c1.827 0 2.838-1.223 2.838-2.923zm-16.12.425v-3.613c0-.744.391-1.276 1.277-1.276h2.768c.94 0 1.277.568 1.277 1.258v3.614c0 .69-.214 1.275-1.295 1.275h-2.75c-.834 0-1.277-.567-1.277-1.258zm6.599-.425v-3.417s-.178-2.233-2.235-2.233H80.7c-2.927 0-2.91 2.922-2.91 2.922v3.419s0 2.232 2.235 2.232h2.714c2.927 0 2.927-2.923 2.927-2.923zm-12.54-4.57c1.366 0 1.454 1.045 1.454 1.771v5.722h1.348v-5.65c0-2.923-1.472-3.1-2.5-3.1-.87 0-2.43.46-3.353.886-.515-.815-1.348-.886-2.005-.886-1.117 0-2.89.814-2.89.814l-.266-.637h-.994v8.573h1.33v-6.944s1.756-.549 2.52-.549c1.223 0 1.418.85 1.454 1.542v5.95h1.348v-5.65a6.47 6.47 0 00-.125-1.275c.32-.089 1.987-.567 2.678-.567z" fill="#323232"/></g></svg>